# xmcd
#
# Track frame offsets: 
#        150
#        13847
#        35210
#        47952
#        66342
#        86602
#        103095
#        116560
#        134570
#        151137
#
# Disc length: 2250 seconds
#
# Revision: 0
# Processed by: cddbd v1.4PL0 Copyright (c) Steve Scherf et al.
# Submitted via: ExactAudioCopy v0.95a3
#
DISCID=8e08c80a
DTITLE=Serina Flagg - Come Hell OrHigh Water
DYEAR=2001
DGENRE=Country
TTITLE0=Come Hell Or High Water
TTITLE1=Black Velvet
TTITLE2=Same Old Stuff
TTITLE3=You're Fading Away
TTITLE4=I Don't Wanna Make You Love Me
TTITLE5=Tempted
TTITLE6=Who Needs Love
TTITLE7=Strong Enough to Bend
TTITLE8=Streets Of Your Town
TTITLE9=You Believed In Me
EXTD=Produced by Douglas Sparks
EXTT0=
EXTT1=
EXTT2=
EXTT3=
EXTT4=
EXTT5=
EXTT6=
EXTT7=
EXTT8=
EXTT9=
PLAYORDER=
